<?xml version="1.0" encoding="UTF-8" standalone="no"?>
<!DOCTYPE svg PUBLIC "-//W3C//DTD SVG 1.1//EN"
 "http://www.w3.org/Graphics/SVG/1.1/DTD/svg11.dtd">
<!-- Generated by graphviz version 2.40.1 (20161225.0304)
 -->
<!-- Title: CoffeeMachine_possible Pages: 1 -->
<svg width="486pt" height="199pt"
 viewBox="0.00 0.00 486.07 199.44" xmlns="http://www.w3.org/2000/svg" xmlns:xlink="http://www.w3.org/1999/xlink">
<g id="graph0" class="graph" transform="scale(1 1) rotate(0) translate(4 195.4423)">
<title>CoffeeMachine_possible</title>
<polygon fill="#ffffff" stroke="transparent" points="-4,4 -4,-195.4423 482.0704,-195.4423 482.0704,4 -4,4"/>
<!-- Off -->
<g id="node1" class="node">
<title>Off</title>
<ellipse fill="none" stroke="#000000" cx="22.748" cy="-83.7445" rx="22.9987" ry="22.9987"/>
<text text-anchor="middle" x="22.748" y="-80.0445" font-family="Times,serif" font-size="14.00" fill="#000000">Off</text>
</g>
<!-- On -->
<g id="node2" class="node">
<title>On</title>
<ellipse fill="none" stroke="#000000" cx="102.9441" cy="-115.7445" rx="21.3963" ry="21.3963"/>
<text text-anchor="middle" x="102.9441" y="-112.0445" font-family="Times,serif" font-size="14.00" fill="#000000">On</text>
</g>
<!-- Off&#45;&gt;On -->
<g id="edge1" class="edge">
<title>Off&#45;&gt;On</title>
<path fill="none" stroke="#000000" d="M45.5144,-86.6738C55.1298,-89.8079 66.3916,-94.2213 76.3829,-98.7502"/>
<polygon fill="#000000" stroke="#000000" points="74.9453,-101.9422 85.4778,-103.0898 77.9598,-95.6246 74.9453,-101.9422"/>
</g>
<!-- On&#45;&gt;Off -->
<g id="edge6" class="edge">
<title>On&#45;&gt;Off</title>
<path fill="none" stroke="#000000" d="M81.6109,-113.2769C72.1107,-110.2557 60.796,-105.8806 50.6371,-101.3367"/>
<polygon fill="#000000" stroke="#000000" points="51.8868,-98.0568 41.3481,-96.9672 48.9071,-104.3909 51.8868,-98.0568"/>
</g>
<!-- Idle -->
<g id="node3" class="node">
<title>Idle</title>
<ellipse fill="none" stroke="#000000" cx="453.3725" cy="-166.7445" rx="24.8972" ry="24.8972"/>
<text text-anchor="middle" x="453.3725" y="-163.0445" font-family="Times,serif" font-size="14.00" fill="#000000">Idle</text>
</g>
<!-- On&#45;&gt;Idle -->
<g id="edge4" class="edge">
<title>On&#45;&gt;Idle</title>
<path fill="none" stroke="#000000" d="M124.6005,-115.428C183.7667,-119.9147 348.4649,-143.6472 419.7611,-157.6735"/>
<polygon fill="#000000" stroke="#000000" points="419.082,-161.107 429.5789,-159.6691 420.4764,-154.2472 419.082,-161.107"/>
</g>
<!-- brewed -->
<g id="node5" class="node">
<title>brewed</title>
<ellipse fill="none" stroke="#000000" cx="196.7889" cy="-55.7445" rx="36.2938" ry="36.2938"/>
<text text-anchor="middle" x="196.7889" y="-52.0445" font-family="Times,serif" font-size="14.00" fill="#000000">brewed</text>
</g>
<!-- On&#45;&gt;brewed -->
<g id="edge9" class="edge">
<title>On&#45;&gt;brewed</title>
<path fill="none" stroke="#000000" d="M121.0383,-104.1759C131.3379,-97.5909 144.663,-89.0714 157.2591,-81.0181"/>
<polygon fill="#000000" stroke="#000000" points="159.2769,-83.8822 165.8168,-75.5466 155.5062,-77.9845 159.2769,-83.8822"/>
</g>
<!-- Idle&#45;&gt;On -->
<g id="edge2" class="edge">
<title>Idle&#45;&gt;On</title>
<path fill="none" stroke="#000000" d="M428.4241,-166.8006C365.8,-161.6536 202.0999,-137.9429 133.6881,-124.2466"/>
<polygon fill="#000000" stroke="#000000" points="134.06,-120.7491 123.5567,-122.1387 132.6341,-127.6023 134.06,-120.7491"/>
</g>
<!-- need_cleaning -->
<g id="node4" class="node">
<title>need_cleaning</title>
<ellipse fill="none" stroke="#000000" cx="330.9302" cy="-61.7445" rx="61.99" ry="61.99"/>
<text text-anchor="middle" x="330.9302" y="-58.0445" font-family="Times,serif" font-size="14.00" fill="#000000">need_cleaning</text>
</g>
<!-- need_cleaning&#45;&gt;Off -->
<g id="edge7" class="edge">
<title>need_cleaning&#45;&gt;Off</title>
<path fill="none" stroke="#000000" d="M278.7424,-28.6669C264.5036,-21.2997 248.7083,-14.5506 233.1857,-10.7445 201.7638,-3.0399 191.788,-2.9343 160.3922,-10.7445 118.8854,-21.07 76.1396,-46.4911 49.5212,-64.42"/>
<polygon fill="#000000" stroke="#000000" points="47.3975,-61.6326 41.1375,-70.1804 51.3616,-67.402 47.3975,-61.6326"/>
</g>
<!-- need_cleaning&#45;&gt;On -->
<g id="edge3" class="edge">
<title>need_cleaning&#45;&gt;On</title>
<path fill="none" stroke="#000000" d="M274.402,-87.234C261.1043,-92.4032 246.8264,-97.3028 233.1857,-100.7445 200.2112,-109.0644 161.3615,-112.7822 134.7273,-114.4358"/>
<polygon fill="#000000" stroke="#000000" points="134.251,-110.9568 124.4615,-115.0083 134.6409,-117.946 134.251,-110.9568"/>
</g>
<!-- need_cleaning&#45;&gt;Idle -->
<g id="edge5" class="edge">
<title>need_cleaning&#45;&gt;Idle</title>
<path fill="none" stroke="#000000" d="M377.9194,-102.04C394.3812,-116.1567 412.2963,-131.5197 426.5374,-143.7321"/>
<polygon fill="#000000" stroke="#000000" points="424.5896,-146.6725 434.4591,-150.5253 429.1464,-141.3587 424.5896,-146.6725"/>
</g>
<!-- brewed&#45;&gt;Off -->
<g id="edge8" class="edge">
<title>brewed&#45;&gt;Off</title>
<path fill="none" stroke="#000000" d="M160.7077,-61.5493C129.7194,-66.5348 85.4301,-73.6601 55.4594,-78.4819"/>
<polygon fill="#000000" stroke="#000000" points="54.8179,-75.04 45.5008,-80.084 55.9298,-81.9511 54.8179,-75.04"/>
</g>
<!-- brewed&#45;&gt;need_cleaning -->
<g id="edge10" class="edge">
<title>brewed&#45;&gt;need_cleaning</title>
<path fill="none" stroke="#000000" d="M233.4436,-57.384C241.4469,-57.742 250.1831,-58.1328 259.0321,-58.5286"/>
<polygon fill="#000000" stroke="#000000" points="258.8911,-62.0257 269.0376,-58.9761 259.204,-55.0327 258.8911,-62.0257"/>
</g>
</g>
</svg>
