<?xml version="1.0" encoding="UTF-8" standalone="no"?>
<!DOCTYPE svg PUBLIC "-//W3C//DTD SVG 1.1//EN"
 "http://www.w3.org/Graphics/SVG/1.1/DTD/svg11.dtd">
<!-- Generated by graphviz version 2.40.1 (20161225.0304)
 -->
<!-- Title: CoffeeMachine_used Pages: 1 -->
<svg width="686pt" height="305pt"
 viewBox="0.00 0.00 685.99 305.44" xmlns="http://www.w3.org/2000/svg" xmlns:xlink="http://www.w3.org/1999/xlink">
<g id="graph0" class="graph" transform="scale(1 1) rotate(0) translate(4 301.4423)">
<title>CoffeeMachine_used</title>
<polygon fill="#ffffff" stroke="transparent" points="-4,4 -4,-301.4423 681.985,-301.4423 681.985,4 -4,4"/>
<!-- init_Off -->
<g id="node1" class="node">
<title>init_Off</title>
</g>
<!-- Off -->
<g id="node2" class="node">
<title>Off</title>
<ellipse fill="none" stroke="#000000" cx="135.748" cy="-42.7445" rx="22.9987" ry="22.9987"/>
<text text-anchor="middle" x="135.748" y="-39.0445" font-family="Times,serif" font-size="14.00" fill="#000000">Off</text>
</g>
<!-- init_Off&#45;&gt;Off -->
<g id="edge1" class="edge">
<title>init_Off&#45;&gt;Off</title>
<path fill="none" stroke="#000000" d="M54.1612,-42.7445C68.8823,-42.7445 87.1891,-42.7445 102.7291,-42.7445"/>
<polygon fill="#000000" stroke="#000000" points="102.9674,-46.2446 112.9674,-42.7445 102.9674,-39.2446 102.9674,-46.2446"/>
<text text-anchor="middle" x="83.5" y="-46.5445" font-family="Times,serif" font-size="14.00" fill="#000000">new</text>
</g>
<!-- On -->
<g id="node5" class="node">
<title>On</title>
<ellipse fill="none" stroke="#000000" cx="266.496" cy="-97.7445" rx="21.3963" ry="21.3963"/>
<text text-anchor="middle" x="266.496" y="-94.0445" font-family="Times,serif" font-size="14.00" fill="#000000">On</text>
</g>
<!-- Off&#45;&gt;On -->
<g id="edge3" class="edge">
<title>Off&#45;&gt;On</title>
<path fill="none" stroke="#000000" d="M152.0261,-58.7018C159.0588,-64.8222 167.6874,-71.3778 176.496,-75.7445 194.8074,-84.8222 217.1132,-90.3084 234.9371,-93.532"/>
<polygon fill="#000000" stroke="#000000" points="234.4112,-96.9926 244.8496,-95.1786 235.5583,-90.0872 234.4112,-96.9926"/>
<text text-anchor="middle" x="198.996" y="-93.5445" font-family="Times,serif" font-size="14.00" fill="#000000">turn_on</text>
</g>
<!-- init_Idle -->
<g id="node3" class="node">
<title>init_Idle</title>
</g>
<!-- Idle -->
<g id="node4" class="node">
<title>Idle</title>
<ellipse fill="none" stroke="#000000" cx="416.496" cy="-239.7445" rx="24.8972" ry="24.8972"/>
<text text-anchor="middle" x="416.496" y="-236.0445" font-family="Times,serif" font-size="14.00" fill="#000000">Idle</text>
</g>
<!-- init_Idle&#45;&gt;Idle -->
<g id="edge2" class="edge">
<title>init_Idle&#45;&gt;Idle</title>
<path fill="none" stroke="#000000" d="M293.7303,-271.7369C312.5429,-267.4974 338.1093,-261.5587 360.496,-255.7445 367.7625,-253.8573 375.5248,-251.7188 382.8839,-249.6336"/>
<polygon fill="#000000" stroke="#000000" points="383.937,-252.9728 392.5848,-246.8518 382.0074,-246.244 383.937,-252.9728"/>
<text text-anchor="middle" x="335.996" y="-270.5445" font-family="Times,serif" font-size="14.00" fill="#000000">new</text>
</g>
<!-- Idle&#45;&gt;Idle -->
<g id="edge14" class="edge">
<title>Idle&#45;&gt;Idle</title>
<path fill="none" stroke="#000000" d="M402.2137,-260.3935C399.5477,-271.8721 404.3085,-282.4423 416.496,-282.4423 424.8749,-282.4423 429.7435,-277.4463 431.1018,-270.5937"/>
<polygon fill="#000000" stroke="#000000" points="434.5936,-270.2775 430.7782,-260.3935 427.5971,-270.4995 434.5936,-270.2775"/>
<text text-anchor="middle" x="416.496" y="-286.2423" font-family="Times,serif" font-size="14.00" fill="#000000">insert_money</text>
</g>
<!-- Idle&#45;&gt;On -->
<g id="edge9" class="edge">
<title>Idle&#45;&gt;On</title>
<path fill="none" stroke="#000000" d="M397.3826,-223.8074C386.9311,-215.6051 373.4957,-205.8622 360.496,-198.7445 340.0082,-187.527 329.0657,-195.1356 311.496,-179.7445 295.669,-165.8801 284.3355,-145.0441 277.0012,-127.8453"/>
<polygon fill="#000000" stroke="#000000" points="280.1118,-126.1983 273.1413,-118.2194 273.6146,-128.8037 280.1118,-126.1983"/>
<text text-anchor="middle" x="335.996" y="-202.5445" font-family="Times,serif" font-size="14.00" fill="#000000">wake_up</text>
</g>
<!-- On&#45;&gt;Off -->
<g id="edge10" class="edge">
<title>On&#45;&gt;Off</title>
<path fill="none" stroke="#000000" d="M252.7435,-81.2487C244.5734,-72.5642 233.4849,-62.5414 221.496,-56.7445 205.2321,-48.8805 185.4182,-45.3105 168.9356,-43.7378"/>
<polygon fill="#000000" stroke="#000000" points="168.8896,-40.2246 158.6561,-42.9677 168.3667,-47.2051 168.8896,-40.2246"/>
<text text-anchor="middle" x="198.996" y="-60.5445" font-family="Times,serif" font-size="14.00" fill="#000000">turn_off</text>
</g>
<!-- On&#45;&gt;Idle -->
<g id="edge6" class="edge">
<title>On&#45;&gt;Idle</title>
<path fill="none" stroke="#000000" d="M268.4083,-119.5016C272.0049,-146.6867 282.2867,-192.6748 311.496,-217.7445 321.9142,-226.6863 355.1569,-232.6255 381.4796,-236.0548"/>
<polygon fill="#000000" stroke="#000000" points="381.1745,-239.5435 391.5267,-237.2889 382.028,-232.5958 381.1745,-239.5435"/>
<text text-anchor="middle" x="335.996" y="-235.5445" font-family="Times,serif" font-size="14.00" fill="#000000">turn_idle</text>
</g>
<!-- On&#45;&gt;On -->
<g id="edge13" class="edge">
<title>On&#45;&gt;On</title>
<path fill="none" stroke="#000000" d="M254.8944,-116.0047C252.3163,-126.9197 256.1835,-137.1926 266.496,-137.1926 273.4247,-137.1926 277.4439,-132.5552 278.5535,-126.2015"/>
<polygon fill="#000000" stroke="#000000" points="282.0409,-125.8383 278.0975,-116.0047 275.0479,-126.1511 282.0409,-125.8383"/>
<text text-anchor="middle" x="266.496" y="-140.9926" font-family="Times,serif" font-size="14.00" fill="#000000">insert_money</text>
</g>
<!-- brewed -->
<g id="node7" class="node">
<title>brewed</title>
<ellipse fill="none" stroke="#000000" cx="416.496" cy="-96.7445" rx="36.2938" ry="36.2938"/>
<text text-anchor="middle" x="416.496" y="-93.0445" font-family="Times,serif" font-size="14.00" fill="#000000">brewed</text>
</g>
<!-- On&#45;&gt;brewed -->
<g id="edge7" class="edge">
<title>On&#45;&gt;brewed</title>
<path fill="none" stroke="#000000" d="M287.9873,-97.6012C309.2495,-97.4595 342.4835,-97.2379 369.8275,-97.0556"/>
<polygon fill="#000000" stroke="#000000" points="370.0053,-100.5546 379.9817,-96.988 369.9585,-93.5548 370.0053,-100.5546"/>
<text text-anchor="middle" x="335.996" y="-100.5445" font-family="Times,serif" font-size="14.00" fill="#000000">brew</text>
</g>
<!-- need_cleaning -->
<g id="node6" class="node">
<title>need_cleaning</title>
<ellipse fill="none" stroke="#000000" cx="616.2405" cy="-61.7445" rx="61.99" ry="61.99"/>
<text text-anchor="middle" x="616.2405" y="-58.0445" font-family="Times,serif" font-size="14.00" fill="#000000">need_cleaning</text>
</g>
<!-- need_cleaning&#45;&gt;Off -->
<g id="edge11" class="edge">
<title>need_cleaning&#45;&gt;Off</title>
<path fill="none" stroke="#000000" d="M561.0416,-33.3591C552.9851,-30.2451 544.6525,-27.5524 536.496,-25.7445 402.3116,3.9974 236.8292,-22.2256 168.0668,-35.7974"/>
<polygon fill="#000000" stroke="#000000" points="167.3682,-32.3678 158.259,-37.7783 168.754,-39.2292 167.3682,-32.3678"/>
<text text-anchor="middle" x="335.996" y="-19.5445" font-family="Times,serif" font-size="14.00" fill="#000000">turn_off</text>
</g>
<!-- need_cleaning&#45;&gt;On -->
<g id="edge4" class="edge">
<title>need_cleaning&#45;&gt;On</title>
<path fill="none" stroke="#000000" d="M564.4105,-95.6281C533.8185,-113.4656 493.5451,-133.3425 454.496,-141.7445 391.3438,-155.3327 371.5964,-139.4252 311.496,-115.7445 306.5346,-113.7897 301.2719,-111.6996 296.161,-109.661"/>
<polygon fill="#000000" stroke="#000000" points="297.2239,-106.3165 286.6391,-105.8533 294.6247,-112.8161 297.2239,-106.3165"/>
<text text-anchor="middle" x="416.496" y="-150.5445" font-family="Times,serif" font-size="14.00" fill="#000000">clean</text>
</g>
<!-- need_cleaning&#45;&gt;On -->
<g id="edge5" class="edge">
<title>need_cleaning&#45;&gt;On</title>
<path fill="none" stroke="#000000" d="M556.7842,-44.0567C508.1804,-32.3103 438.0201,-21.5861 378.496,-36.7445 346.6254,-44.8607 314.0337,-64.0943 292.2868,-78.8119"/>
<polygon fill="#000000" stroke="#000000" points="290.1681,-76.0219 283.946,-84.5972 294.1577,-81.7738 290.1681,-76.0219"/>
<text text-anchor="middle" x="416.496" y="-40.5445" font-family="Times,serif" font-size="14.00" fill="#000000">skip_cleaning</text>
</g>
<!-- brewed&#45;&gt;Off -->
<g id="edge12" class="edge">
<title>brewed&#45;&gt;Off</title>
<path fill="none" stroke="#000000" d="M382.8087,-82.8529C358.3728,-73.2323 324.3353,-60.762 293.496,-52.7445 262.0982,-44.5819 253.8268,-43.4203 221.496,-40.7445 204.2536,-39.3175 184.9995,-39.5978 169.1114,-40.3296"/>
<polygon fill="#000000" stroke="#000000" points="168.5117,-36.8568 158.7158,-40.8929 168.8905,-43.8466 168.5117,-36.8568"/>
<text text-anchor="middle" x="266.496" y="-56.5445" font-family="Times,serif" font-size="14.00" fill="#000000">turn_off</text>
</g>
<!-- brewed&#45;&gt;need_cleaning -->
<g id="edge8" class="edge">
<title>brewed&#45;&gt;need_cleaning</title>
<path fill="none" stroke="#000000" d="M452.6682,-90.4063C478.4352,-85.8913 513.911,-79.6751 545.2401,-74.1855"/>
<polygon fill="#000000" stroke="#000000" points="546.0027,-77.6053 555.2486,-72.4318 544.7945,-70.7103 546.0027,-77.6053"/>
<text text-anchor="middle" x="504.496" y="-89.5445" font-family="Times,serif" font-size="14.00" fill="#000000">take_coffee</text>
</g>
</g>
</svg>
