<?xml version="1.0" encoding="UTF-8" standalone="no"?>
<!DOCTYPE svg PUBLIC "-//W3C//DTD SVG 1.1//EN"
 "http://www.w3.org/Graphics/SVG/1.1/DTD/svg11.dtd">
<!-- Generated by graphviz version 2.40.1 (20161225.0304)
 -->
<!-- Title: SimpleMachine_possible Pages: 1 -->
<svg width="132pt" height="53pt"
 viewBox="0.00 0.00 132.39 53.50" xmlns="http://www.w3.org/2000/svg" xmlns:xlink="http://www.w3.org/1999/xlink">
<g id="graph0" class="graph" transform="scale(1 1) rotate(0) translate(4 49.496)">
<title>SimpleMachine_possible</title>
<polygon fill="#ffffff" stroke="transparent" points="-4,4 -4,-49.496 128.3922,-49.496 128.3922,4 -4,4"/>
<!-- Off -->
<g id="node1" class="node">
<title>Off</title>
<ellipse fill="none" stroke="#000000" cx="22.748" cy="-22.748" rx="22.9987" ry="22.9987"/>
<text text-anchor="middle" x="22.748" y="-19.048" font-family="Times,serif" font-size="14.00" fill="#000000">Off</text>
</g>
<!-- On -->
<g id="node2" class="node">
<title>On</title>
<ellipse fill="none" stroke="#000000" cx="102.9441" cy="-22.748" rx="21.3963" ry="21.3963"/>
<text text-anchor="middle" x="102.9441" y="-19.048" font-family="Times,serif" font-size="14.00" fill="#000000">On</text>
</g>
<!-- Off&#45;&gt;On -->
<g id="edge1" class="edge">
<title>Off&#45;&gt;On</title>
<path fill="none" stroke="#000000" d="M45.0871,-16.6246C53.4149,-15.9968 63.0235,-15.8407 71.9882,-16.1564"/>
<polygon fill="#000000" stroke="#000000" points="71.9147,-19.6579 82.1008,-16.7436 72.3206,-12.6697 71.9147,-19.6579"/>
</g>
<!-- On&#45;&gt;Off -->
<g id="edge2" class="edge">
<title>On&#45;&gt;Off</title>
<path fill="none" stroke="#000000" d="M82.1008,-28.7523C73.9348,-29.4372 64.3717,-29.6503 55.3363,-29.3916"/>
<polygon fill="#000000" stroke="#000000" points="55.2517,-25.8829 45.0871,-28.8713 54.8967,-32.8739 55.2517,-25.8829"/>
</g>
</g>
</svg>
