<?xml version="1.0" encoding="UTF-8" standalone="no"?>
<!DOCTYPE svg PUBLIC "-//W3C//DTD SVG 1.1//EN"
 "http://www.w3.org/Graphics/SVG/1.1/DTD/svg11.dtd">
<!-- Generated by graphviz version 2.40.1 (20161225.0304)
 -->
<!-- Title: SimpleMachine_used Pages: 1 -->
<svg width="300pt" height="85pt"
 viewBox="0.00 0.00 300.44 85.20" xmlns="http://www.w3.org/2000/svg" xmlns:xlink="http://www.w3.org/1999/xlink">
<g id="graph0" class="graph" transform="scale(1 1) rotate(0) translate(4 81.1961)">
<title>SimpleMachine_used</title>
<polygon fill="#ffffff" stroke="transparent" points="-4,4 -4,-81.1961 296.4441,-81.1961 296.4441,4 -4,4"/>
<!-- init_Off -->
<g id="node1" class="node">
<title>init_Off</title>
</g>
<!-- Off -->
<g id="node2" class="node">
<title>Off</title>
<ellipse fill="none" stroke="#000000" cx="135.748" cy="-22.748" rx="22.9987" ry="22.9987"/>
<text text-anchor="middle" x="135.748" y="-19.048" font-family="Times,serif" font-size="14.00" fill="#000000">Off</text>
</g>
<!-- init_Off&#45;&gt;Off -->
<g id="edge1" class="edge">
<title>init_Off&#45;&gt;Off</title>
<path fill="none" stroke="#000000" d="M54.1612,-22.748C68.8823,-22.748 87.1891,-22.748 102.7291,-22.748"/>
<polygon fill="#000000" stroke="#000000" points="102.9674,-26.2481 112.9674,-22.748 102.9674,-19.2481 102.9674,-26.2481"/>
<text text-anchor="middle" x="83.5" y="-26.548" font-family="Times,serif" font-size="14.00" fill="#000000">new</text>
</g>
<!-- On -->
<g id="node3" class="node">
<title>On</title>
<ellipse fill="none" stroke="#000000" cx="260.9441" cy="-22.748" rx="21.3963" ry="21.3963"/>
<text text-anchor="middle" x="260.9441" y="-19.048" font-family="Times,serif" font-size="14.00" fill="#000000">On</text>
</g>
<!-- Off&#45;&gt;On -->
<g id="edge2" class="edge">
<title>Off&#45;&gt;On</title>
<path fill="none" stroke="#000000" d="M158.7109,-22.748C178.4876,-22.748 207.2307,-22.748 229.2065,-22.748"/>
<polygon fill="#000000" stroke="#000000" points="229.3821,-26.2481 239.382,-22.748 229.382,-19.2481 229.3821,-26.2481"/>
<text text-anchor="middle" x="198.996" y="-26.548" font-family="Times,serif" font-size="14.00" fill="#000000">turn_on</text>
</g>
<!-- On&#45;&gt;Off -->
<g id="edge3" class="edge">
<title>On&#45;&gt;Off</title>
<path fill="none" stroke="#000000" d="M242.3149,-11.6629C235.9365,-8.4499 228.6105,-5.372 221.496,-3.748 201.9975,.703 196.0219,.5806 176.496,-3.748 172.7714,-4.5736 168.9838,-5.7766 165.2929,-7.1827"/>
<polygon fill="#000000" stroke="#000000" points="163.65,-4.0797 155.8588,-11.2594 166.4268,-10.5055 163.65,-4.0797"/>
<text text-anchor="middle" x="198.996" y="-7.548" font-family="Times,serif" font-size="14.00" fill="#000000">turn_off</text>
</g>
<!-- On&#45;&gt;On -->
<g id="edge4" class="edge">
<title>On&#45;&gt;On</title>
<path fill="none" stroke="#000000" d="M250.312,-41.4171C248.1422,-52.1784 251.6862,-62.1961 260.9441,-62.1961 267.1642,-62.1961 270.8049,-57.6739 271.8664,-51.4424"/>
<polygon fill="#000000" stroke="#000000" points="275.3642,-51.3116 271.5761,-41.4171 268.3671,-51.5143 275.3642,-51.3116"/>
<text text-anchor="middle" x="260.9441" y="-65.9961" font-family="Times,serif" font-size="14.00" fill="#000000">print_name</text>
</g>
</g>
</svg>
